Coordinates

Units are S.I. units (second, meters, Newtons, ...)
If the header above contains a line with 'inDegrees', this indicates whether rotational values are in degrees (yes) or radians (no).

inDegrees=no
nColumns=21
nRows=17
DataType=double
version=3
OpenSimVersion=4.6-2026-03-31-d6972f9e6
endheader
time	/jointset/ground_pelvis/pelvis_tilt/value	/jointset/ground_pelvis/pelvis_list/value	/jointset/ground_pelvis/pelvis_rotation/value	/jointset/ground_pelvis/pelvis_tx/value	/jointset/ground_pelvis/pelvis_ty/value	/jointset/ground_pelvis/pelvis_tz/value	/jointset/hip_r/hip_flexion_r/value	/jointset/hip_r/hip_adduction_r/value	/jointset/hip_r/hip_rotation_r/value	/jointset/walker_knee_r/knee_angle_r/value	/jointset/patellofemoral_r/knee_angle_r_beta/value	/jointset/ankle_r/ankle_angle_r/value	/jointset/subtalar_r/subtalar_angle_r/value	/jointset/hip_l/hip_flexion_l/value	/jointset/hip_l/hip_adduction_l/value	/jointset/hip_l/hip_rotation_l/value	/jointset/walker_knee_l/knee_angle_l/value	/jointset/patellofemoral_l/knee_angle_l_beta/value	/jointset/ankle_l/ankle_angle_l/value	/jointset/subtalar_l/subtalar_angle_l/value
144.996	-0.1302481852805001	-0.1252743529302624	1.565147017428669	0.8262804715748173	0.9172207584814979	-0.8919106089635044	-0.02863232761487908	-0.1782328403866008	0.03849008485245421	0.9589087098818895	0.958908710925777	-0.4687237335559074	-0.3835877633561419	0.4346398437216059	0.1710818900159533	-0.03212083061784692	0.4385966612303905	0.4385966610548125	0.0264303625898525	-0.2852021428087287
145	-0.1358873483533792	-0.1243774359696072	1.565301547026304	0.8261155737944259	0.9143025019177955	-0.8913881589307832	-0.009279308517618179	-0.1868387512836334	0.03857154781739087	0.9931107040828203	0.9931107052231188	-0.4671543827583608	-0.4012452420353245	0.4363117653350371	0.179842609341263	-0.02773806857618543	0.46706048942295	0.4670604892079021	0.03759077394305697	-0.3039398710701966
145.004	-0.1413114521391667	-0.1236885499115505	1.565444949054026	0.8259692195554968	0.9114041535512213	-0.8908042918729653	0.01082489020937805	-0.1950974579322035	0.03923547809153842	1.026783965448776	1.026783966645301	-0.4651183874499706	-0.4188574991000981	0.4377599539995344	0.1882114927985947	-0.02373654853084993	0.4951607618504382	0.4951607616348523	0.05031208607436048	-0.3209635089690242
145.008	-0.1464327144483527	-0.1231636513631298	1.565574666603096	0.8258445113355117	0.9085552648120339	-0.8901637035822242	0.03158248030852207	-0.2028517022795645	0.04055041475931436	1.059767819785958	1.059767820996112	-0.4625291042443126	-0.4362276417908708	0.4387592930753955	0.1960667617533507	-0.02016721144207795	0.5224876868617412	0.5224876866902741	0.06448264350091931	-0.335964812570118
145.012	-0.1511707222037325	-0.1227559757643977	1.565688436223064	0.8257441543599591	0.9057858391112232	-0.8894724331516133	0.05288532100494795	-0.2099553747987292	0.04255720374903751	1.091897843962285	1.091897845142785	-0.4593144270800292	-0.4531552224213827	0.4390855502812646	0.2033001643770365	-0.0170561593372294	0.5486519738355643	0.5486519737557276	0.0799476684664676	-0.3487207726100165
145.016	-0.155453752794959	-0.1224176828304244	1.565784388106976	0.8256703010945292	0.9031256358874951	-0.8887377528870846	0.07461705450953358	-0.2162771559357822	0.04526883155996535	1.123008592777151	1.123008593885531	-0.4554187099346025	-0.4694426239085346	0.4385211085955421	0.209819706181151	-0.01440319961126639	0.5732915096186497	0.5732915096770855	0.0965129432248088	-0.3590974454263027
145.02	-0.1592197868018452	-0.1221016061067551	1.565861127027073	0.8256244186242312	0.9006034643477614	-0.8879680110246841	0.09665562513050402	-0.2217036176132036	0.04867129361058374	1.152936506772242	1.152936507768298	-0.4508039103365041	-0.4849011972182167	0.4368606703278671	0.2155516815775122	-0.01218159546611044	0.5960772864351034	0.5960772866734432	0.113949301639435	-0.367050243231887
145.024	-0.1624172087978497	-0.1217630137085738	1.565917789814386	0.8256071871905994	0.8982465003281386	-0.8871724338189743	0.1188760622046939	-0.2261416812806211	0.0527254115781521	1.181522869194219	1.181522870041591	-0.4454499702702767	-0.4993569013240701	0.4339166833972676	0.2204419260562523	-0.01033901035260886	0.616718390442742	0.6167183908935999	0.13199779162952	-0.3726208337838378
145.028	-0.165005211287283	-0.1213612742751119	1.565954077462027	0.8256184364092959	0.8960796586053761	-0.88636089560737	0.1411533765268977	-0.2295203631942039	0.05736948041629085	1.208616675243746	1.2086166759117	-0.4393544997681544	-0.5126552505983973	0.4295242416084492	0.2244562569205393	-0.008799587470465966	0.6349659084166839	0.6349659091003683	0.1503753563550538	-0.3759309519942917
145.032	-0.1669539279324685	-0.1208613180720822	1.565970262082988	0.8256571230835752	0.8941250498638678	-0.8855436672959304	0.1633654011359131	-0.2317917772582405	0.06252258478881631	1.234077278943211	1.234077279408464	-0.4325318701693801	-0.5246654351877508	0.4235452247199245	0.2275801186238929	-0.007467055692313803	0.6506156550010876	0.6506156559235087	0.1687808696234067	-0.3771735588073835
145.036	-0.1682443185239122	-0.1202348051362693	1.565967170968146	0.8257213518675919	0.8924015453007856	-0.8847311546440066	0.1853954226439078	-0.2329313889275549	0.0680883982628596	1.257776697194985	1.257776697443244	-0.425011854562507	-0.5352835352847671	0.4158714939233766	0.2298174839616089	-0.006228701214509177	0.6635096757770337	0.6635096769290083	0.1869013592585176	-0.3766018819649146
145.04	-0.1688678147034197	-0.1194609640976377	1.565946150879854	0.8258084376249046	0.8909244621361244	-0.8839336373150124	0.2071345061591753	-0.2329375203787644	0.0739592746171585	1.279601480589439	1.279601480616374	-0.4168379683208029	-0.5444347989844682	0.406427056483006	0.2311890790573114	-0.004960017471634765	0.6735365557216241	0.673536557079522	0.2044182786891734	-0.3745168977971847
145.044	-0.1688257372704269	-0.1185271455252454	1.565909015737442	0.8259150058843131	0.8897053696852211	-0.8831610180383888	0.2284835192555008	-0.2318301367835748	0.08002044185364904	1.299454113885467	1.299454113697031	-0.4080656591118347	-0.5520749956832417	0.3951692621663639	0.2317300153932794	-0.003529873884117847	0.6806306630041775	0.6806306645317622	0.221013751603702	-0.3712537205629748
145.048	-0.1681285210507548	-0.1174291889919951	1.565857980553703	0.826037125176037	0.8887520044228154	-0.8824225895952121	0.2493549370930278	-0.2296490087451535	0.08615410455305017	1.317253960114209	1.317253959726398	-0.3987604875453969	-0.5581909007753181	0.3820892065646418	0.2314869490338511	-0.001806081855066235	0.6847705317311318	0.6847705333824006	0.2363767591539236	-0.3671672593266173
145.052	-0.1667947993417923	-0.1161716349818628	1.565795583624137	0.8261704627504733	0.8880682857336896	-0.881726827518992	0.2696744212021026	-0.2264513905255831	0.09224326769399976	1.332937751506206	1.332937750944346	-0.3889964425132886	-0.5628000188413257	0.3672114355319337	0.23051494043803	0.000338806804447167	0.6859765483805493	0.6859765501032272	0.2502091612454659	-0.3626176127826437
145.056	-0.1648503901645521	-0.1147676915034884	1.565724597718498	0.8263104540892392	0.8876544342818855	-0.8810812173557515	0.2893819976000793	-0.2223093446285411	0.09817513614222104	1.346459584022111	1.34645958331963	-0.3788545075375499	-0.5659496602450258	0.3505928706259516	0.2288742192755167	0.003021715499281083	0.684308006077101	0.6843080078163306	0.2622313497430874	-0.3579558743204307
145.06	-0.1623272051822154	-0.1132389016770299	1.565647929524672	0.8264524773489562	0.8875071877273446	-0.8804921234113902	0.308432703440713	-0.2173068063999447	0.1038440127152643	1.357790397196147	1.357790396392701	-0.3684214651967519	-0.5677153768905095	0.3323209232383901	0.2266270232703725	0.006343506619205293	0.6798595966887835	0.6798595983906077	0.2721875075311264	-0.3535108361344163
